<?xml version="1.0" encoding="UTF-8"?>
<svg version="1.1" xmlns="http://www.w3.org/2000/svg" width="500" height="500">
<path d="M0 0 C0.90045044 -0.00705963 1.80090088 -0.01411926 2.7286377 -0.02139282 C40.56271231 -0.2507174 40.56271231 -0.2507174 57.20703125 3.203125 C58.69759033 3.50911621 58.69759033 3.50911621 60.21826172 3.82128906 C82.21378087 8.47295034 102.99514255 15.36588877 123.20703125 25.203125 C123.94405273 25.56132324 124.68107422 25.91952148 125.44042969 26.28857422 C144.89901796 35.8774365 162.98020988 48.4248097 178.93359375 63.11328125 C181.05333337 65.06183915 183.21186594 66.95069833 185.39453125 68.828125 C191.89170121 74.51964589 197.4893498 80.59900765 202.8984375 87.33984375 C204.36112473 89.1539719 205.84574865 90.95080689 207.359375 92.72265625 C240.59858161 131.85235517 262.13989466 186.54373014 262.41015625 237.99609375 C262.41721588 238.89654419 262.42427551 239.79699463 262.43154907 240.72473145 C262.66087365 278.55880606 262.66087365 278.55880606 259.20703125 295.203125 C258.90104004 296.69368408 258.90104004 296.69368408 258.58886719 298.21435547 C253.93720591 320.20987462 247.04426748 340.9912363 237.20703125 361.203125 C236.84883301 361.94014648 236.49063477 362.67716797 236.12158203 363.43652344 C226.53271975 382.89511171 213.98534655 400.97630363 199.296875 416.9296875 C197.3483171 419.04942712 195.45945792 421.20795969 193.58203125 423.390625 C187.89051036 429.88779496 181.8111486 435.48544355 175.0703125 440.89453125 C173.25618435 442.35721848 171.45934936 443.8418424 169.6875 445.35546875 C130.52985746 478.61841241 75.8976503 500.1358244 24.4140625 500.40625 C23.06338684 500.41683945 23.06338684 500.41683945 21.6854248 500.42764282 C-16.14864981 500.6569674 -16.14864981 500.6569674 -32.79296875 497.203125 C-34.28352783 496.89713379 -34.28352783 496.89713379 -35.80419922 496.58496094 C-57.79971837 491.93329966 -78.58108005 485.04036123 -98.79296875 475.203125 C-99.52999023 474.84492676 -100.26701172 474.48672852 -101.02636719 474.11767578 C-120.48495546 464.5288135 -138.56614738 451.9814403 -154.51953125 437.29296875 C-156.63927087 435.34441085 -158.79780344 433.45555167 -160.98046875 431.578125 C-167.47763871 425.88660411 -173.0752873 419.80724235 -178.484375 413.06640625 C-179.94706223 411.2522781 -181.43168615 409.45544311 -182.9453125 407.68359375 C-216.20825616 368.52595121 -237.72566815 313.89374405 -237.99609375 262.41015625 C-238.00315338 261.50970581 -238.01021301 260.60925537 -238.01748657 259.68151855 C-238.24681115 221.84744394 -238.24681115 221.84744394 -234.79296875 205.203125 C-234.48697754 203.71256592 -234.48697754 203.71256592 -234.17480469 202.19189453 C-229.52314341 180.19637538 -222.63020498 159.4150137 -212.79296875 139.203125 C-212.43477051 138.46610352 -212.07657227 137.72908203 -211.70751953 136.96972656 C-202.11865725 117.51113829 -189.57128405 99.42994637 -174.8828125 83.4765625 C-172.9342546 81.35682288 -171.04539542 79.19829031 -169.16796875 77.015625 C-163.47644786 70.51845504 -157.3970861 64.92080645 -150.65625 59.51171875 C-148.84212185 58.04903152 -147.04528686 56.5644076 -145.2734375 55.05078125 C-106.11579496 21.78783759 -51.4835878 0.2704256 0 0 Z " fill="#0f0f0f" transform="translate(237.79296875,-0.203125)"/>
<path d="M0 0 C5.02825722 10.42706927 9.35674643 21.10121423 13.65982056 31.84204102 C15.74686513 37.05108288 17.84463268 42.25580594 19.94140625 47.4609375 C20.36481796 48.51275208 20.78822968 49.56456665 21.22447205 50.64825439 C26.00823698 62.52194509 30.87270661 74.36221162 35.74755859 86.19873047 C39.55346704 95.44427334 43.30654639 104.70893494 47 114 C52.83037308 102.53435505 58.33009785 90.94316012 63.6875 79.25 C64.48039941 77.52483961 65.27361696 75.79982541 66.06713867 74.07495117 C67.26006723 71.48185591 68.45284931 68.88869504 69.64466858 66.29508972 C73.01589234 58.95911969 76.40892561 51.63351556 79.8125 44.3125 C80.31958496 43.22130859 80.82666992 42.13011719 81.34912109 41.00585938 C82.36542045 38.81910837 83.381859 36.63242204 84.3984375 34.44580078 C87.07587644 28.6852256 89.75038706 22.92329104 92.42514038 17.16146851 C93.82107729 14.15446957 95.2171856 11.14755024 96.61328125 8.140625 C97.30611206 6.64837402 97.30611206 6.64837402 98.01293945 5.12597656 C98.33866943 4.4244043 98.66439941 3.72283203 99 3 C99.66 3 100.32 3 101 3 C109.88860538 22.91556409 118.70905271 42.85595204 127.35144043 62.87974548 C129.72688792 68.3784649 132.11984834 73.86948692 134.515625 79.359375 C135.0964962 80.69055611 135.0964962 80.69055611 135.68910217 82.04862976 C137.23487273 85.59044981 138.78095103 89.13213437 140.32833862 92.67324829 C141.40051239 95.12694288 142.47179603 97.58102452 143.54296875 100.03515625 C144.02331573 101.13310516 144.02331573 101.13310516 144.5133667 102.25323486 C146.06686488 105.81403743 147.58354511 109.38232746 149 113 C153.57236433 103.38523529 157.70478672 93.62656334 161.74737549 83.78076172 C168.77181065 66.67834919 175.93783182 49.63911328 183.20239258 32.63745117 C183.5386113 31.84968796 183.87483002 31.06192474 184.22123718 30.25028992 C184.82948507 28.8256138 185.4386361 27.40132252 186.04914856 25.97761536 C189.44845965 18.01771921 192.70350364 10.00577687 196 2 C211.51 2 227.02 2 243 2 C239.50519205 11.90195585 236.03043104 21.72179699 232.1640625 31.46875 C231.50974495 33.12945778 231.50974495 33.12945778 230.84220886 34.82371521 C229.91651147 37.1722899 228.98948459 39.52034096 228.06118774 41.8678894 C226.59097756 45.58604254 225.12430994 49.3055741 223.65893555 53.02563477 C223.16118359 54.28914077 222.66342664 55.55264479 222.16566467 56.81614685 C221.91966082 57.44060637 221.67365696 58.06506588 221.42019844 58.70844841 C220.677397 60.59355575 219.93421198 62.47851142 219.19090271 64.36341858 C215.04425546 74.88013754 210.91970272 85.40532051 206.8125 95.9375 C206.49754578 96.74479553 206.18259155 97.55209106 205.85809326 98.3838501 C200.07069509 113.22080878 194.32054502 128.07217011 188.56958008 142.92327881 C179.12314352 167.31225159 169.56771843 191.65839808 160 216 C157.73450458 213.04080646 155.9201838 210.1274365 154.21484375 206.80859375 C153.68971191 205.79176514 153.16458008 204.77493652 152.62353516 203.72729492 C151.78894775 202.09884644 151.78894775 202.09884644 150.9375 200.4375 C149.75684896 198.15086683 148.57585676 195.86440979 147.39453125 193.578125 C146.81396973 192.45212891 146.2334082 191.32613281 145.63525391 190.16601562 C143.48219789 185.99748316 141.31018788 181.83926454 139.125 177.6875 C138.73248047 176.94121338 138.33996094 176.19492676 137.93554688 175.42602539 C135.52692737 170.85944642 133.09273225 166.30720049 130.64453125 161.76171875 C122.78770769 147.16927295 115.08743645 132.50984123 107.54663086 117.75146484 C107.19847824 117.07142899 106.85032562 116.39139313 106.49162292 115.69075012 C105.84242536 114.42226228 105.19469802 113.1530204 104.54878235 111.88285828 C102.8206036 108.50673924 100.99037988 105.22849318 99 102 C93.58366121 112.66452909 88.43554685 123.41793789 83.5 134.3125 C82.81053947 135.82818837 82.120753 137.3437285 81.43066406 138.85913086 C80.00132698 141.99860728 78.57336627 145.13870385 77.14648438 148.27929688 C74.027225 155.14251647 70.89359459 161.99916645 67.7590332 168.85540771 C67.08882564 170.32137528 66.41874008 171.78739864 65.7487793 173.253479 C59.53452759 186.85202501 53.28031956 200.43183265 47 214 C46.34 214 45.68 214 45 214 C33.66468742 187.97379071 22.35284385 161.93889626 11.25 135.8125 C10.83544556 134.83714294 10.42089111 133.86178589 9.99377441 132.85687256 C6.13298485 123.76980873 2.28189503 114.6787284 -1.546875 105.578125 C-2.05766602 104.36535889 -2.56845703 103.15259277 -3.09472656 101.90307617 C-3.98481148 99.78719155 -4.8724841 97.67028917 -5.75683594 95.55200195 C-7.43695846 91.55332463 -9.15548201 87.61728664 -11.12890625 83.75390625 C-12.85408452 80.37454646 -14.18063666 76.96015116 -15.4375 73.375 C-18.49174298 64.94047689 -22.05621645 56.72572141 -25.625 48.5 C-25.90858368 47.84424988 -26.19216736 47.18849976 -26.48434448 46.51287842 C-30.18592921 37.92435635 -30.18592921 37.92435635 -34.2421875 29.5 C-35.89354827 26.21195722 -37.23539752 22.952023 -38.5 19.5 C-39.93363865 15.67400459 -41.42133254 11.99695322 -43.3125 8.375 C-45 5 -45 5 -45 2 C-39.3764262 1.09321777 -33.81305485 0.69240777 -28.125 0.4375 C-27.21403564 0.3950415 -26.30307129 0.35258301 -25.36450195 0.30883789 C-16.90665941 -0.05691063 -8.46379003 -0.09983501 0 0 Z " fill="#f0f0f0" transform="translate(152,158)"/>
</svg>
